<svg xmlns="http://www.w3.org/2000/svg" version="1.1" xmlns:xlink="http://www.w3.org/1999/xlink" xmlns:svgjs="http://svgjs.dev/svgjs" width="1000" height="625" viewBox="0 0 1000 625"><g transform="matrix(1,0,0,1,0.44910604709838253,0.2530364372469762)"><svg viewBox="0 0 395 247" data-background-color="#ffffff" preserveAspectRatio="xMidYMid meet" height="625" width="1000" xmlns="http://www.w3.org/2000/svg" xmlns:xlink="http://www.w3.org/1999/xlink"><g id="tight-bounds" transform="matrix(1,0,0,1,-0.17739681744549785,-0.09999999999999432)"><svg viewBox="0 0 395.3547828472828 247.2" height="247.2" width="395.3547828472828"><g><svg viewBox="0 0 395.52 247.3033038726825" height="247.2" width="395.3547828472828"><g transform="matrix(1,0,0,1,0,150.0283798184359)"><svg viewBox="0 0 395.52 97.27492405424661" height="97.27492405424661" width="395.52"><g id="textblocktransform"><svg viewBox="0 0 395.52 97.27492405424661" height="97.27492405424661" width="395.52" id="textblock"><g><svg viewBox="0 0 395.52 66.05684091337989" height="66.05684091337989" width="395.52"><g transform="matrix(1,0,0,1,0,0)"><svg width="395.52" viewBox="3.200000047683716 -35.25 264.92999267578125 44.25" height="66.05684091337989" data-palette-color="#1c4b82"><path d="M12.25 0L3.2 0 3.2-35.25 27.75-35.25 27.75-28.05 12.25-28.05 12.25-21.55 26.75-21.55 26.75-14.35 12.25-14.35 12.25 0ZM53.7-12.6L53.7-10.6 38.5-10.6Q38.9-8.2 40.25-7.15 41.6-6.1 44.1-6.1L44.1-6.1Q45.9-6.1 47.75-6.7 49.6-7.3 51.05-8.35L51.05-8.35 53.3-2.5Q51.45-1.15 48.85-0.38 46.25 0.4 43.65 0.4L43.65 0.4Q39.4 0.4 36.3-1.15 33.2-2.7 31.52-5.6 29.85-8.5 29.85-12.4L29.85-12.4Q29.85-16.1 31.42-19.03 33-21.95 35.82-23.58 38.65-25.2 42.2-25.2L42.2-25.2Q47.5-25.2 50.6-21.83 53.7-18.45 53.7-12.6L53.7-12.6ZM42.45-19.2Q38.9-19.2 38.4-14.8L38.4-14.8 46.25-14.8Q45.95-19.2 42.45-19.2L42.45-19.2ZM80.45-12.6L80.45-10.6 65.25-10.6Q65.65-8.2 67-7.15 68.34-6.1 70.84-6.1L70.84-6.1Q72.65-6.1 74.5-6.7 76.34-7.3 77.8-8.35L77.8-8.35 80.05-2.5Q78.2-1.15 75.59-0.38 73 0.4 70.4 0.4L70.4 0.4Q66.15 0.4 63.05-1.15 59.95-2.7 58.27-5.6 56.6-8.5 56.6-12.4L56.6-12.4Q56.6-16.1 58.17-19.03 59.75-21.95 62.57-23.58 65.4-25.2 68.95-25.2L68.95-25.2Q74.25-25.2 77.34-21.83 80.45-18.45 80.45-12.6L80.45-12.6ZM69.2-19.2Q65.65-19.2 65.15-14.8L65.15-14.8 73-14.8Q72.7-19.2 69.2-19.2L69.2-19.2ZM101.64-35.25L110.54-35.25 110.54 0 101.79 0 101.79-3.35Q100.74-1.6 98.72-0.6 96.69 0.4 94.24 0.4L94.24 0.4Q91.09 0.4 88.62-1.23 86.14-2.85 84.74-5.8 83.34-8.75 83.34-12.55L83.34-12.55Q83.34-16.35 84.72-19.23 86.09-22.1 88.57-23.65 91.04-25.2 94.24-25.2L94.24-25.2Q96.59-25.2 98.57-24.25 100.54-23.3 101.64-21.7L101.64-21.7 101.64-35.25ZM96.94-6.25Q99.29-6.25 100.54-7.85 101.79-9.45 101.79-12.45L101.79-12.45Q101.79-15.4 100.54-16.98 99.29-18.55 96.94-18.55L96.94-18.55Q94.64-18.55 93.39-17 92.14-15.45 92.14-12.55L92.14-12.55Q92.14-9.55 93.42-7.9 94.69-6.25 96.94-6.25L96.94-6.25ZM132.04-25.2Q135.24-25.2 137.69-23.65 140.14-22.1 141.52-19.23 142.89-16.35 142.89-12.55L142.89-12.55Q142.89-8.75 141.52-5.8 140.14-2.85 137.67-1.23 135.19 0.4 132.04 0.4L132.04 0.4Q129.59 0.4 127.57-0.6 125.54-1.6 124.49-3.35L124.49-3.35 124.49 0 115.74 0 115.74-35.25 124.64-35.25 124.64-21.7Q125.74-23.3 127.72-24.25 129.69-25.2 132.04-25.2L132.04-25.2ZM129.29-6.25Q131.59-6.25 132.84-7.88 134.09-9.5 134.09-12.55L134.09-12.55Q134.09-15.45 132.87-17 131.64-18.55 129.34-18.55L129.34-18.55Q126.99-18.55 125.74-16.98 124.49-15.4 124.49-12.45L124.49-12.45Q124.49-9.45 125.74-7.85 126.99-6.25 129.29-6.25L129.29-6.25ZM158.24-25.2Q164.04-25.2 166.81-22.53 169.59-19.85 169.59-14.2L169.59-14.2 169.59 0 161.24 0 161.24-3.45Q160.54-1.65 158.89-0.63 157.24 0.4 154.94 0.4L154.94 0.4Q152.39 0.4 150.34-0.63 148.29-1.65 147.11-3.48 145.94-5.3 145.94-7.6L145.94-7.6Q145.94-10.25 147.31-11.83 148.69-13.4 151.69-14.1 154.69-14.8 159.79-14.8L159.79-14.8 161.14-14.8 161.14-15.4Q161.14-17.25 160.29-17.98 159.44-18.7 157.29-18.7L157.29-18.7Q155.59-18.7 153.36-18.03 151.14-17.35 149.19-16.3L149.19-16.3 146.94-22.15Q149.09-23.45 152.31-24.33 155.54-25.2 158.24-25.2L158.24-25.2ZM157.04-5.55Q158.84-5.55 159.99-6.83 161.14-8.1 161.14-10.1L161.14-10.1 161.14-10.7 160.34-10.7Q157.14-10.7 155.79-10.13 154.44-9.55 154.44-8.2L154.44-8.2Q154.44-7.05 155.16-6.3 155.89-5.55 157.04-5.55L157.04-5.55ZM186.84 0.4Q180.54 0.4 176.99-3 173.44-6.4 173.44-12.25L173.44-12.25Q173.44-16.1 175.16-19.05 176.89-22 180.01-23.6 183.14-25.2 187.24-25.2L187.24-25.2Q189.99-25.2 192.56-24.4 195.14-23.6 196.74-22.25L196.74-22.25 194.49-16.25Q193.24-17.25 191.46-17.88 189.69-18.5 188.14-18.5L188.14-18.5Q185.44-18.5 184.01-17 182.59-15.5 182.59-12.45L182.59-12.45Q182.59-9.4 184.01-7.85 185.44-6.3 188.14-6.3L188.14-6.3Q189.69-6.3 191.46-6.93 193.24-7.55 194.49-8.6L194.49-8.6 196.74-2.55Q195.04-1.15 192.41-0.38 189.79 0.4 186.84 0.4L186.84 0.4ZM217.53-12.85L227.48 0 216.73 0 208.48-10.45 208.48 0 199.58 0 199.58-35.25 208.48-35.25 208.48-14.5 216.58-24.55 227.13-24.55 217.53-12.85ZM237.48 0L228.58 0 228.58-35.25 237.48-35.25 237.48 0ZM253.73-10.7L259.43-24.55 268.13-24.55 253.13 9 244.13 9 249.08-1.7 239.03-24.55 248.33-24.55 253.73-10.7Z" opacity="1" transform="matrix(1,0,0,1,0,0)" fill="#ffffff" class="wordmark-text-0" data-fill-palette-color="primary" id="text-0"></path></svg></g></svg></g><g transform="matrix(1,0,0,1,39.55199999999999,81.65127568884695)"><svg viewBox="0 0 316.416 15.623648365399655" height="15.623648365399655" width="316.416"><g transform="matrix(1,0,0,1,0,0)"><svg width="316.416" viewBox="3.049999952316284 -36.599998474121094 958.8599853515625 47.349998474121094" height="15.623648365399655" data-palette-color="#1c4b82"><path d="M18.3 0.5L18.3 0.5Q13.65 0.5 10.25-1.55 6.85-3.6 4.95-7.38 3.05-11.15 3.05-16.5L3.05-16.5Q3.05-21.75 5.03-25.55 7-29.35 10.63-31.43 14.25-33.5 18.95-33.5L18.95-33.5Q24.1-33.5 27.28-31.6 30.45-29.7 32.35-25.7L32.35-25.7 27.4-23.35Q26.45-26.1 24.28-27.48 22.1-28.85 19-28.85L19-28.85Q15.9-28.85 13.58-27.4 11.25-25.95 9.95-23.18 8.65-20.4 8.65-16.5L8.65-16.5Q8.65-12.55 9.8-9.78 10.95-7 13.28-5.55 15.6-4.1 19-4.1L19-4.1Q20.85-4.1 22.45-4.58 24.05-5.05 25.25-5.98 26.45-6.9 27.13-8.33 27.8-9.75 27.8-11.7L27.8-11.7 27.8-12.65 18.2-12.65 18.2-17 32.55-17 32.55 0 28.55 0 28.25-6.65 29.25-6.15Q28.05-3 25.28-1.25 22.5 0.5 18.3 0.5ZM51.35 0.5L51.35 0.5Q47.6 0.5 44.75-1.05 41.9-2.6 40.32-5.53 38.75-8.45 38.75-12.5L38.75-12.5Q38.75-16.55 40.32-19.48 41.9-22.4 44.7-23.95 47.5-25.5 51.05-25.5L51.05-25.5Q54.7-25.5 57.25-24 59.8-22.5 61.15-19.9 62.5-17.3 62.5-14L62.5-14Q62.5-13.1 62.45-12.3 62.4-11.5 62.3-10.9L62.3-10.9 42.2-10.9 42.2-15 59.95-15 57.3-14.2Q57.3-17.6 55.6-19.43 53.9-21.25 50.95-21.25L50.95-21.25Q48.8-21.25 47.2-20.25 45.6-19.25 44.75-17.28 43.9-15.3 43.9-12.45L43.9-12.45Q43.9-9.65 44.8-7.7 45.7-5.75 47.35-4.75 49-3.75 51.25-3.75L51.25-3.75Q53.75-3.75 55.3-4.7 56.85-5.65 57.75-7.35L57.75-7.35 62-5.35Q61.1-3.55 59.57-2.23 58.05-0.9 55.95-0.2 53.85 0.5 51.35 0.5ZM71.2-30.85L76.55-32.35 76.55-7.5Q76.55-5.65 77.52-4.8 78.5-3.95 80.15-3.95L80.15-3.95Q81.5-3.95 82.5-4.38 83.5-4.8 84.35-5.55L84.35-5.55 85.55-1.65Q84.4-0.65 82.72-0.08 81.05 0.5 79 0.5L79 0.5Q76.85 0.5 75.05-0.2 73.25-0.9 72.25-2.48 71.25-4.05 71.2-6.6L71.2-6.6 71.2-30.85ZM66.4-25L85.15-25 85.15-20.8 66.4-20.8 66.4-25ZM108.64-30.85L113.99-32.35 113.99-7.5Q113.99-5.65 114.97-4.8 115.94-3.95 117.59-3.95L117.59-3.95Q118.94-3.95 119.94-4.38 120.94-4.8 121.79-5.55L121.79-5.55 122.99-1.65Q121.84-0.65 120.17-0.08 118.49 0.5 116.44 0.5L116.44 0.5Q114.29 0.5 112.49-0.2 110.69-0.9 109.69-2.48 108.69-4.05 108.64-6.6L108.64-6.6 108.64-30.85ZM103.84-25L122.59-25 122.59-20.8 103.84-20.8 103.84-25ZM133.24 0L127.89 0 127.89-36.25 133.24-36.25 133.24-21Q134.49-23.35 136.61-24.43 138.74-25.5 141.34-25.5L141.34-25.5Q143.99-25.5 146.11-24.48 148.24-23.45 149.49-21.4 150.74-19.35 150.74-16.2L150.74-16.2 150.74 0 145.39 0 145.39-14.5Q145.39-18.2 143.86-19.65 142.34-21.1 140.04-21.1L140.04-21.1Q138.44-21.1 136.86-20.33 135.29-19.55 134.26-17.82 133.24-16.1 133.24-13.2L133.24-13.2 133.24 0ZM169.84 0.5L169.84 0.5Q166.09 0.5 163.24-1.05 160.39-2.6 158.81-5.53 157.24-8.45 157.24-12.5L157.24-12.5Q157.24-16.55 158.81-19.48 160.39-22.4 163.19-23.95 165.99-25.5 169.54-25.5L169.54-25.5Q173.19-25.5 175.74-24 178.29-22.5 179.64-19.9 180.99-17.3 180.99-14L180.99-14Q180.99-13.1 180.94-12.3 180.89-11.5 180.79-10.9L180.79-10.9 160.69-10.9 160.69-15 178.44-15 175.79-14.2Q175.79-17.6 174.09-19.43 172.39-21.25 169.44-21.25L169.44-21.25Q167.29-21.25 165.69-20.25 164.09-19.25 163.24-17.28 162.39-15.3 162.39-12.45L162.39-12.45Q162.39-9.65 163.29-7.7 164.19-5.75 165.84-4.75 167.49-3.75 169.74-3.75L169.74-3.75Q172.24-3.75 173.79-4.7 175.34-5.65 176.24-7.35L176.24-7.35 180.49-5.35Q179.59-3.55 178.06-2.23 176.54-0.9 174.44-0.2 172.34 0.5 169.84 0.5ZM214.58-36.6L214.58-36.6Q216.13-36.6 217.41-36.27 218.68-35.95 219.33-35.4L219.33-35.4 218.33-31.55Q217.78-31.9 217.08-32.08 216.38-32.25 215.48-32.25L215.48-32.25Q213.43-32.25 212.26-31.3 211.08-30.35 211.08-28.2L211.08-28.2 211.08-24.55 211.23-23.2 211.23 0 205.88 0 205.88-28.6Q205.88-30.5 206.46-32 207.03-33.5 208.18-34.52 209.33-35.55 210.96-36.08 212.58-36.6 214.58-36.6ZM201.18-25L219.18-25 219.18-20.8 201.18-20.8 201.18-25ZM234.98 0.5L234.98 0.5Q231.23 0.5 228.38-1.05 225.53-2.6 223.95-5.53 222.38-8.45 222.38-12.5L222.38-12.5Q222.38-16.55 223.95-19.48 225.53-22.4 228.33-23.95 231.13-25.5 234.68-25.5L234.68-25.5Q238.33-25.5 240.88-24 243.43-22.5 244.78-19.9 246.13-17.3 246.13-14L246.13-14Q246.13-13.1 246.08-12.3 246.03-11.5 245.93-10.9L245.93-10.9 225.83-10.9 225.83-15 243.58-15 240.93-14.2Q240.93-17.6 239.23-19.43 237.53-21.25 234.58-21.25L234.58-21.25Q232.43-21.25 230.83-20.25 229.23-19.25 228.38-17.28 227.53-15.3 227.53-12.45L227.53-12.45Q227.53-9.65 228.43-7.7 229.33-5.75 230.98-4.75 232.63-3.75 234.88-3.75L234.88-3.75Q237.38-3.75 238.93-4.7 240.48-5.65 241.38-7.35L241.38-7.35 245.63-5.35Q244.73-3.55 243.2-2.23 241.68-0.9 239.58-0.2 237.48 0.5 234.98 0.5ZM263.88 0.5L263.88 0.5Q260.13 0.5 257.28-1.05 254.43-2.6 252.85-5.53 251.28-8.45 251.28-12.5L251.28-12.5Q251.28-16.55 252.85-19.48 254.43-22.4 257.23-23.95 260.03-25.5 263.58-25.5L263.58-25.5Q267.23-25.5 269.78-24 272.33-22.5 273.68-19.9 275.03-17.3 275.03-14L275.03-14Q275.03-13.1 274.98-12.3 274.93-11.5 274.83-10.9L274.83-10.9 254.73-10.9 254.73-15 272.48-15 269.83-14.2Q269.83-17.6 268.13-19.43 266.43-21.25 263.48-21.25L263.48-21.25Q261.33-21.25 259.73-20.25 258.13-19.25 257.28-17.28 256.43-15.3 256.43-12.45L256.43-12.45Q256.43-9.65 257.33-7.7 258.23-5.75 259.88-4.75 261.53-3.75 263.78-3.75L263.78-3.75Q266.28-3.75 267.83-4.7 269.38-5.65 270.28-7.35L270.28-7.35 274.53-5.35Q273.63-3.55 272.1-2.23 270.58-0.9 268.48-0.2 266.38 0.5 263.88 0.5ZM291.37 0.5L291.37 0.5Q288.27 0.5 285.75-1.05 283.22-2.6 281.77-5.5 280.32-8.4 280.32-12.45L280.32-12.45Q280.32-16.65 281.87-19.55 283.42-22.45 286.02-23.98 288.62-25.5 291.72-25.5L291.72-25.5Q294.92-25.5 297.12-23.75 299.32-22 300.07-19.2L300.07-19.2 299.47-18.65 299.47-36.25 304.82-36.25 304.82 0 300.07 0 299.67-6.8 300.37-6.75Q300.02-4.5 298.72-2.88 297.42-1.25 295.5-0.38 293.57 0.5 291.37 0.5ZM292.52-3.8L292.52-3.8Q294.67-3.8 296.22-4.9 297.77-6 298.62-8 299.47-10 299.47-12.8L299.47-12.8Q299.47-15.4 298.62-17.28 297.77-19.15 296.25-20.15 294.72-21.15 292.72-21.15L292.72-21.15Q289.37-21.15 287.52-18.85 285.67-16.55 285.67-12.5L285.67-12.5Q285.67-8.45 287.47-6.13 289.27-3.8 292.52-3.8ZM326.52 0.5L326.52 0.5Q324.32 0.5 322.5-0.35 320.67-1.2 319.42-2.73 318.17-4.25 317.57-6.15L317.57-6.15 318.22-7 317.82 0 313.12 0 313.12-36.25 318.47-36.25 318.47-18.7 317.87-19.55Q318.82-22.15 321.12-23.83 323.42-25.5 326.67-25.5L326.67-25.5Q329.67-25.5 332.2-23.95 334.72-22.4 336.17-19.5 337.62-16.6 337.62-12.45L337.62-12.45Q337.62-8.4 336.15-5.5 334.67-2.6 332.15-1.05 329.62 0.5 326.52 0.5ZM325.37-3.8L325.37-3.8Q328.62-3.8 330.45-6.13 332.27-8.45 332.27-12.5L332.27-12.5Q332.27-16.55 330.47-18.85 328.67-21.15 325.42-21.15L325.42-21.15Q323.32-21.15 321.77-20.08 320.22-19 319.35-17.05 318.47-15.1 318.47-12.4L318.47-12.4Q318.47-9.75 319.32-7.83 320.17-5.9 321.75-4.85 323.32-3.8 325.37-3.8ZM358.92-9.25L358.92-16.05Q358.92-18.55 357.54-19.93 356.17-21.3 353.77-21.3L353.77-21.3Q351.52-21.3 349.92-20.25 348.32-19.2 347.57-16.85L347.57-16.85 343.07-18.75Q344.02-21.8 346.79-23.65 349.57-25.5 353.97-25.5L353.97-25.5Q356.97-25.5 359.27-24.53 361.57-23.55 362.89-21.6 364.22-19.65 364.22-16.6L364.22-16.6 364.22-5.45Q364.22-3.6 366.07-3.6L366.07-3.6Q366.97-3.6 367.82-3.85L367.82-3.85 367.52-0.15Q366.37 0.4 364.62 0.4L364.62 0.4Q363.02 0.4 361.74-0.18 360.47-0.75 359.74-1.93 359.02-3.1 359.02-4.85L359.02-4.85 359.02-5.2 360.12-5.25Q359.67-3.3 358.27-2.02 356.87-0.75 355.02-0.13 353.17 0.5 351.27 0.5L351.27 0.5Q348.92 0.5 347.04-0.25 345.17-1 344.09-2.53 343.02-4.05 343.02-6.3L343.02-6.3Q343.02-9.1 344.84-10.9 346.67-12.7 350.02-13.35L350.02-13.35 359.72-15.25 359.67-11.5 352.62-10.05Q350.52-9.65 349.47-8.9 348.42-8.15 348.42-6.7L348.42-6.7Q348.42-5.3 349.49-4.48 350.57-3.65 352.37-3.65L352.37-3.65Q353.62-3.65 354.79-3.95 355.97-4.25 356.92-4.93 357.87-5.6 358.39-6.68 358.92-7.75 358.92-9.25L358.92-9.25ZM383.77-25.5L383.77-25.5Q386.77-25.5 388.89-24.63 391.02-23.75 392.47-22.15 393.92-20.55 394.67-18.5L394.67-18.5 389.62-16.5Q388.97-18.8 387.54-20.03 386.12-21.25 383.82-21.25L383.82-21.25Q381.57-21.25 379.97-20.23 378.37-19.2 377.54-17.25 376.72-15.3 376.72-12.45L376.72-12.45Q376.72-9.65 377.57-7.7 378.42-5.75 380.02-4.75 381.62-3.75 383.82-3.75L383.82-3.75Q385.52-3.75 386.77-4.33 388.02-4.9 388.84-5.98 389.67-7.05 389.97-8.6L389.97-8.6 394.82-6.95Q394.12-4.7 392.64-3.03 391.17-1.35 388.97-0.43 386.77 0.5 383.92 0.5L383.92 0.5Q380.22 0.5 377.37-1.05 374.52-2.6 372.94-5.53 371.37-8.45 371.37-12.5L371.37-12.5Q371.37-16.55 372.94-19.48 374.52-22.4 377.34-23.95 380.17-25.5 383.77-25.5ZM418.31-25L424.66-25 413.51-13.6 412.36-12.8 404.51-4.65 404.46-10.75 418.31-25ZM401.06-36.25L406.41-36.25 406.41 0 401.06 0 401.06-36.25ZM410.16-13.55L414.16-16.6 425.26 0 419.06 0 410.16-13.55ZM462.86-25L468.41-25 457.46 2.95Q456.36 5.85 455.08 7.55 453.81 9.25 452.16 10 450.51 10.75 448.31 10.75L448.31 10.75Q446.51 10.75 444.98 10.28 443.46 9.8 442.31 9L442.31 9 443.61 4.85Q444.56 5.65 445.63 6.05 446.71 6.45 447.96 6.45L447.96 6.45Q449.31 6.45 450.38 5.73 451.46 5 452.31 2.85L452.31 2.85 453.41 0.15 450.76-6.05 442.96-25 448.96-25 454.51-9.3 455.96-4.6 457.61-9.75 462.86-25ZM483.81-25.5L483.81-25.5Q487.46-25.5 490.26-23.95 493.06-22.4 494.63-19.48 496.21-16.55 496.21-12.5L496.21-12.5Q496.21-8.45 494.63-5.53 493.06-2.6 490.26-1.05 487.46 0.5 483.81 0.5L483.81 0.5Q480.16 0.5 477.36-1.05 474.56-2.6 472.96-5.53 471.36-8.45 471.36-12.5L471.36-12.5Q471.36-16.55 472.96-19.48 474.56-22.4 477.36-23.95 480.16-25.5 483.81-25.5ZM483.81-21.3L483.81-21.3Q481.56-21.3 479.98-20.28 478.41-19.25 477.56-17.3 476.71-15.35 476.71-12.5L476.71-12.5Q476.71-9.7 477.56-7.73 478.41-5.75 479.98-4.73 481.56-3.7 483.81-3.7L483.81-3.7Q486.06-3.7 487.61-4.73 489.16-5.75 490.01-7.73 490.86-9.7 490.86-12.5L490.86-12.5Q490.86-15.35 490.01-17.3 489.16-19.25 487.61-20.28 486.06-21.3 483.81-21.3ZM511.85 0.5L511.85 0.5Q509.4 0.5 507.33-0.4 505.25-1.3 504-3.3 502.75-5.3 502.75-8.5L502.75-8.5 502.75-25 508.1-25 508.1-9.85Q508.1-6.45 509.55-5.18 511-3.9 513.6-3.9L513.6-3.9Q514.85-3.9 516.03-4.33 517.2-4.75 518.15-5.68 519.1-6.6 519.63-8.05 520.15-9.5 520.15-11.45L520.15-11.45 520.15-25 525.5-25 525.5 0 520.8 0 520.55-4.05Q519.25-1.7 517.05-0.6 514.85 0.5 511.85 0.5ZM555.45 0L550.1 0 550.1-25 554.85-25 555.2-18.5 554.5-19.2Q555.2-21.35 556.52-22.78 557.85-24.2 559.67-24.85 561.5-25.5 563.55-25.5L563.55-25.5Q566.2-25.5 568.32-24.48 570.45-23.45 571.7-21.4 572.95-19.35 572.95-16.2L572.95-16.2 572.95 0 567.6 0 567.6-14.55Q567.6-18.25 566.07-19.68 564.55-21.1 562.25-21.1L562.25-21.1Q560.6-21.1 559.05-20.33 557.5-19.55 556.47-17.85 555.45-16.15 555.45-13.3L555.45-13.3 555.45 0ZM592.04 0.5L592.04 0.5Q588.29 0.5 585.44-1.05 582.6-2.6 581.02-5.53 579.44-8.45 579.44-12.5L579.44-12.5Q579.44-16.55 581.02-19.48 582.6-22.4 585.39-23.95 588.19-25.5 591.75-25.5L591.75-25.5Q595.39-25.5 597.94-24 600.5-22.5 601.85-19.9 603.19-17.3 603.19-14L603.19-14Q603.19-13.1 603.14-12.3 603.1-11.5 603-10.9L603-10.9 582.89-10.9 582.89-15 600.64-15 598-14.2Q598-17.6 596.29-19.43 594.6-21.25 591.64-21.25L591.64-21.25Q589.5-21.25 587.89-20.25 586.29-19.25 585.44-17.28 584.6-15.3 584.6-12.45L584.6-12.45Q584.6-9.65 585.5-7.7 586.39-5.75 588.04-4.75 589.69-3.75 591.94-3.75L591.94-3.75Q594.44-3.75 596-4.7 597.54-5.65 598.44-7.35L598.44-7.35 602.69-5.35Q601.79-3.55 600.27-2.23 598.75-0.9 596.64-0.2 594.54 0.5 592.04 0.5ZM620.94 0.5L620.94 0.5Q617.19 0.5 614.34-1.05 611.49-2.6 609.92-5.53 608.34-8.45 608.34-12.5L608.34-12.5Q608.34-16.55 609.92-19.48 611.49-22.4 614.29-23.95 617.09-25.5 620.64-25.5L620.64-25.5Q624.29-25.5 626.84-24 629.39-22.5 630.74-19.9 632.09-17.3 632.09-14L632.09-14Q632.09-13.1 632.04-12.3 631.99-11.5 631.89-10.9L631.89-10.9 611.79-10.9 611.79-15 629.54-15 626.89-14.2Q626.89-17.6 625.19-19.43 623.49-21.25 620.54-21.25L620.54-21.25Q618.39-21.25 616.79-20.25 615.19-19.25 614.34-17.28 613.49-15.3 613.49-12.45L613.49-12.45Q613.49-9.65 614.39-7.7 615.29-5.75 616.94-4.75 618.59-3.75 620.84-3.75L620.84-3.75Q623.34-3.75 624.89-4.7 626.44-5.65 627.34-7.35L627.34-7.35 631.59-5.35Q630.69-3.55 629.17-2.23 627.64-0.9 625.54-0.2 623.44 0.5 620.94 0.5ZM648.44 0.5L648.44 0.5Q645.34 0.5 642.81-1.05 640.29-2.6 638.84-5.5 637.39-8.4 637.39-12.45L637.39-12.45Q637.39-16.65 638.94-19.55 640.49-22.45 643.09-23.98 645.69-25.5 648.79-25.5L648.79-25.5Q651.99-25.5 654.19-23.75 656.39-22 657.14-19.2L657.14-19.2 656.54-18.65 656.54-36.25 661.89-36.25 661.89 0 657.14 0 656.74-6.8 657.44-6.75Q657.09-4.5 655.79-2.88 654.49-1.25 652.56-0.38 650.64 0.5 648.44 0.5ZM649.59-3.8L649.59-3.8Q651.74-3.8 653.29-4.9 654.84-6 655.69-8 656.54-10 656.54-12.8L656.54-12.8Q656.54-15.4 655.69-17.28 654.84-19.15 653.31-20.15 651.79-21.15 649.79-21.15L649.79-21.15Q646.44-21.15 644.59-18.85 642.74-16.55 642.74-12.5L642.74-12.5Q642.74-8.45 644.54-6.13 646.34-3.8 649.59-3.8ZM672.84-6.75L672.84-6.75Q674.24-6.75 675.16-6.08 676.09-5.4 676.59-4.23 677.09-3.05 677.09-1.55L677.09-1.55Q677.09 0.3 676.39 2.02 675.69 3.75 674.36 5.18 673.04 6.6 671.19 7.5L671.19 7.5 668.69 5.35Q670.04 4.85 671.09 4.05 672.14 3.25 672.86 2.25 673.59 1.25 673.89 0.2L673.89 0.2 673.69 0.1Q673.44 0.25 673.11 0.35 672.79 0.45 672.19 0.45L672.19 0.45Q671.49 0.45 670.76 0.08 670.04-0.3 669.54-1.05 669.04-1.8 669.04-3L669.04-3Q669.04-4.1 669.56-4.95 670.09-5.8 670.94-6.28 671.79-6.75 672.84-6.75ZM702.03-30.85L707.38-32.35 707.38-7.5Q707.38-5.65 708.36-4.8 709.33-3.95 710.98-3.95L710.98-3.95Q712.33-3.95 713.33-4.38 714.33-4.8 715.18-5.55L715.18-5.55 716.38-1.65Q715.23-0.65 713.56-0.08 711.88 0.5 709.83 0.5L709.83 0.5Q707.68 0.5 705.88-0.2 704.08-0.9 703.08-2.48 702.08-4.05 702.03-6.6L702.03-6.6 702.03-30.85ZM697.23-25L715.98-25 715.98-20.8 697.23-20.8 697.23-25ZM732.13-25.5L732.13-25.5Q735.78-25.5 738.58-23.95 741.38-22.4 742.95-19.48 744.53-16.55 744.53-12.5L744.53-12.5Q744.53-8.45 742.95-5.53 741.38-2.6 738.58-1.05 735.78 0.5 732.13 0.5L732.13 0.5Q728.48 0.5 725.68-1.05 722.88-2.6 721.28-5.53 719.68-8.45 719.68-12.5L719.68-12.5Q719.68-16.55 721.28-19.48 722.88-22.4 725.68-23.95 728.48-25.5 732.13-25.5ZM732.13-21.3L732.13-21.3Q729.88-21.3 728.3-20.28 726.73-19.25 725.88-17.3 725.03-15.35 725.03-12.5L725.03-12.5Q725.03-9.7 725.88-7.73 726.73-5.75 728.3-4.73 729.88-3.7 732.13-3.7L732.13-3.7Q734.38-3.7 735.93-4.73 737.48-5.75 738.33-7.73 739.18-9.7 739.18-12.5L739.18-12.5Q739.18-15.35 738.33-17.3 737.48-19.25 735.93-20.28 734.38-21.3 732.13-21.3ZM777.02 0.5L777.02 0.5Q773.27 0.5 770.17-0.95 767.07-2.4 765.27-5.05L765.27-5.05 768.97-8.25Q770.07-6.2 772.15-4.98 774.22-3.75 777.12-3.75L777.12-3.75Q779.42-3.75 780.77-4.55 782.12-5.35 782.12-6.8L782.12-6.8Q782.12-7.75 781.5-8.47 780.87-9.2 779.12-9.6L779.12-9.6 773.87-10.7Q769.87-11.5 768.17-13.28 766.47-15.05 766.47-17.8L766.47-17.8Q766.47-19.85 767.67-21.6 768.87-23.35 771.2-24.43 773.52-25.5 776.77-25.5L776.77-25.5Q780.52-25.5 783.17-24.18 785.82-22.85 787.22-20.4L787.22-20.4 783.52-17.3Q782.57-19.3 780.72-20.28 778.87-21.25 776.87-21.25L776.87-21.25Q775.27-21.25 774.12-20.85 772.97-20.45 772.37-19.75 771.77-19.05 771.77-18.1L771.77-18.1Q771.77-17.1 772.52-16.35 773.27-15.6 775.22-15.2L775.22-15.2 780.92-14Q784.52-13.3 786-11.63 787.47-9.95 787.47-7.55L787.47-7.55Q787.47-5.15 786.22-3.33 784.97-1.5 782.62-0.5 780.27 0.5 777.02 0.5ZM802.87 0.5L802.87 0.5Q800.42 0.5 798.35-0.4 796.27-1.3 795.02-3.3 793.77-5.3 793.77-8.5L793.77-8.5 793.77-25 799.12-25 799.12-9.85Q799.12-6.45 800.57-5.18 802.02-3.9 804.62-3.9L804.62-3.9Q805.87-3.9 807.05-4.33 808.22-4.75 809.17-5.68 810.12-6.6 810.65-8.05 811.17-9.5 811.17-11.45L811.17-11.45 811.17-25 816.52-25 816.52 0 811.82 0 811.57-4.05Q810.27-1.7 808.07-0.6 805.87 0.5 802.87 0.5ZM835.67-25.5L835.67-25.5Q838.67-25.5 840.79-24.63 842.92-23.75 844.37-22.15 845.82-20.55 846.57-18.5L846.57-18.5 841.52-16.5Q840.87-18.8 839.44-20.03 838.02-21.25 835.72-21.25L835.72-21.25Q833.47-21.25 831.87-20.23 830.27-19.2 829.44-17.25 828.62-15.3 828.62-12.45L828.62-12.45Q828.62-9.65 829.47-7.7 830.32-5.75 831.92-4.75 833.52-3.75 835.72-3.75L835.72-3.75Q837.42-3.75 838.67-4.33 839.92-4.9 840.74-5.98 841.57-7.05 841.87-8.6L841.87-8.6 846.72-6.95Q846.02-4.7 844.54-3.03 843.07-1.35 840.87-0.43 838.67 0.5 835.82 0.5L835.82 0.5Q832.12 0.5 829.27-1.05 826.42-2.6 824.84-5.53 823.27-8.45 823.27-12.5L823.27-12.5Q823.27-16.55 824.84-19.48 826.42-22.4 829.24-23.95 832.07-25.5 835.67-25.5ZM863.77-25.5L863.77-25.5Q866.77-25.5 868.89-24.63 871.02-23.75 872.47-22.15 873.92-20.55 874.67-18.5L874.67-18.5 869.62-16.5Q868.97-18.8 867.54-20.03 866.12-21.25 863.82-21.25L863.82-21.25Q861.57-21.25 859.97-20.23 858.37-19.2 857.54-17.25 856.72-15.3 856.72-12.45L856.72-12.45Q856.72-9.65 857.57-7.7 858.42-5.75 860.02-4.75 861.62-3.75 863.82-3.75L863.82-3.75Q865.52-3.75 866.77-4.33 868.02-4.9 868.84-5.98 869.67-7.05 869.97-8.6L869.97-8.6 874.82-6.95Q874.12-4.7 872.64-3.03 871.17-1.35 868.97-0.43 866.77 0.5 863.92 0.5L863.92 0.5Q860.22 0.5 857.37-1.05 854.52-2.6 852.94-5.53 851.37-8.45 851.37-12.5L851.37-12.5Q851.37-16.55 852.94-19.48 854.52-22.4 857.34-23.95 860.17-25.5 863.77-25.5ZM892.06 0.5L892.06 0.5Q888.31 0.5 885.46-1.05 882.61-2.6 881.04-5.53 879.46-8.45 879.46-12.5L879.46-12.5Q879.46-16.55 881.04-19.48 882.61-22.4 885.41-23.95 888.21-25.5 891.76-25.5L891.76-25.5Q895.41-25.5 897.96-24 900.51-22.5 901.86-19.9 903.21-17.3 903.21-14L903.21-14Q903.21-13.1 903.16-12.3 903.11-11.5 903.01-10.9L903.01-10.9 882.91-10.9 882.91-15 900.66-15 898.01-14.2Q898.01-17.6 896.31-19.43 894.61-21.25 891.66-21.25L891.66-21.25Q889.51-21.25 887.91-20.25 886.31-19.25 885.46-17.28 884.61-15.3 884.61-12.45L884.61-12.45Q884.61-9.65 885.51-7.7 886.41-5.75 888.06-4.75 889.71-3.75 891.96-3.75L891.96-3.75Q894.46-3.75 896.01-4.7 897.56-5.65 898.46-7.35L898.46-7.35 902.71-5.35Q901.81-3.55 900.29-2.23 898.76-0.9 896.66-0.2 894.56 0.5 892.06 0.5ZM920.96 0.5L920.96 0.5Q917.21 0.5 914.36-1.05 911.51-2.6 909.94-5.53 908.36-8.45 908.36-12.5L908.36-12.5Q908.36-16.55 909.94-19.48 911.51-22.4 914.31-23.95 917.11-25.5 920.66-25.5L920.66-25.5Q924.31-25.5 926.86-24 929.41-22.5 930.76-19.9 932.11-17.3 932.11-14L932.11-14Q932.11-13.1 932.06-12.3 932.01-11.5 931.91-10.9L931.91-10.9 911.81-10.9 911.81-15 929.56-15 926.91-14.2Q926.91-17.6 925.21-19.43 923.51-21.25 920.56-21.25L920.56-21.25Q918.41-21.25 916.81-20.25 915.21-19.25 914.36-17.28 913.51-15.3 913.51-12.45L913.51-12.45Q913.51-9.65 914.41-7.7 915.31-5.75 916.96-4.75 918.61-3.75 920.86-3.75L920.86-3.75Q923.36-3.75 924.91-4.7 926.46-5.65 927.36-7.35L927.36-7.35 931.61-5.35Q930.71-3.55 929.19-2.23 927.66-0.9 925.56-0.2 923.46 0.5 920.96 0.5ZM948.46 0.5L948.46 0.5Q945.36 0.5 942.83-1.05 940.31-2.6 938.86-5.5 937.41-8.4 937.41-12.45L937.41-12.45Q937.41-16.65 938.96-19.55 940.51-22.45 943.11-23.98 945.71-25.5 948.81-25.5L948.81-25.5Q952.01-25.5 954.21-23.75 956.41-22 957.16-19.2L957.16-19.2 956.56-18.65 956.56-36.25 961.91-36.25 961.91 0 957.16 0 956.76-6.8 957.46-6.75Q957.11-4.5 955.81-2.88 954.51-1.25 952.58-0.38 950.66 0.5 948.46 0.5ZM949.61-3.8L949.61-3.8Q951.76-3.8 953.31-4.9 954.86-6 955.71-8 956.56-10 956.56-12.8L956.56-12.8Q956.56-15.4 955.71-17.28 954.86-19.15 953.33-20.15 951.81-21.15 949.81-21.15L949.81-21.15Q946.46-21.15 944.61-18.85 942.76-16.55 942.76-12.5L942.76-12.5Q942.76-8.45 944.56-6.13 946.36-3.8 949.61-3.8Z" opacity="1" transform="matrix(1,0,0,1,0,0)" fill="#ffffff" class="slogan-text-1" data-fill-palette-color="secondary" id="text-1"></path></svg></g></svg></g></svg></g></svg></g><g transform="matrix(1,0,0,1,130.5430274785156,0)"><svg viewBox="0 0 134.4339450429688 134.43394504296882" height="134.43394504296882" width="134.4339450429688"><g><svg></svg></g><g id="icon-0"><svg viewBox="0 0 134.4339450429688 134.43394504296882" height="134.43394504296882" width="134.4339450429688"><g><path xmlns="http://www.w3.org/2000/svg" d="M40.33 134.434c-22.274 0-40.33-18.056-40.33-40.33v-53.774c0-22.274 18.056-40.33 40.33-40.33h53.774c22.274 0 40.33 18.056 40.33 40.33v53.774c0 22.274-18.056 40.33-40.33 40.33z" fill="#ffffff" fill-rule="nonzero" stroke="none" stroke-width="1" stroke-linecap="butt" stroke-linejoin="miter" stroke-miterlimit="10" stroke-dasharray="" stroke-dashoffset="0" font-family="none" font-weight="none" font-size="none" text-anchor="none" style="mix-blend-mode: normal" data-fill-palette-color="accent"></path></g><g transform="matrix(1,0,0,1,26.88678900859375,36.052679956381944)"><svg viewBox="0 0 80.66036702578128 62.32858513020493" height="62.32858513020493" width="80.66036702578128"><g><svg xmlns="http://www.w3.org/2000/svg" xmlns:xlink="http://www.w3.org/1999/xlink" version="1.1" x="0" y="0" viewBox="5.442999839782715 15.315999984741211 89.5009994506836 69.15999603271484" enable-background="new 0 0 100 100" xml:space="preserve" height="62.32858513020493" width="80.66036702578128" class="icon-s-0" data-fill-palette-color="quaternary" id="s-0"><path d="M87.62 33.304v2.902c2.507 0.452 4.423 2.641 4.423 5.28l-0.006 39.309-8.999-9.002H38.143c-2.625 0-4.809-1.893-5.276-4.38h-2.902c0.498 4.091 3.953 7.282 8.178 7.282h43.694l8.403 8.403c0.941 0.941 1.752 1.378 2.557 1.378 1.34 0 2.094-1.168 2.147-2.387V41.486C94.944 37.247 91.731 33.782 87.62 33.304z" fill="#000000" data-fill-palette-color="quaternary"></path><path d="M76.014 64.512c4.809 0 8.704-3.899 8.704-8.705V24.021c0-4.807-3.896-8.705-8.704-8.705H14.148c-4.807 0-8.705 3.897-8.705 8.705v25.136 6.65 19.982c0 0 0.121 2.697 2.841-0.023l11.256-11.254H76.014z" fill="#000000" data-fill-palette-color="quaternary"></path></svg></g></svg></g></svg></g></svg></g><g></g></svg></g><defs></defs></svg><rect width="395.3547828472828" height="247.2" fill="none" stroke="none" visibility="hidden"></rect></g></svg></g></svg>